
        <svg xmlns="http://www.w3.org/2000/svg" xmlns:xlink="http://www.w3.org/1999/xlink" version="1.1" width="3129.929709967663" 
        height="3266.310250324485" viewBox="0 0 3129.929709967663 3266.310250324485">
			<rect fill="#000000" width="3129.929709967663" height="3266.310250324485"/>
			<g transform="scale(13.31551251622425) translate(10, 10)">
				<defs id="SvgjsDefs8400"><linearGradient id="SvgjsLinearGradient8407"><stop id="SvgjsStop8408" stop-color="#945f50" offset="0"></stop><stop id="SvgjsStop8409" stop-color="#fcc5b3" offset="0.5"></stop><stop id="SvgjsStop8410" stop-color="#945f50" offset="1"></stop></linearGradient><linearGradient id="SvgjsLinearGradient8411"><stop id="SvgjsStop8412" stop-color="#945f50" offset="0"></stop><stop id="SvgjsStop8413" stop-color="#fcc5b3" offset="0.5"></stop><stop id="SvgjsStop8414" stop-color="#945f50" offset="1"></stop></linearGradient></defs><g id="SvgjsG8401" featureKey="monogramFeature-0" transform="matrix(2.3491427926642845,0,0,2.3491427926642845,74.22845635470057,-52.291928063651675)" fill="url(#SvgjsLinearGradient8407)"><path d="M29.28 54.78 c-1.38 0.96 -2.82 1.8 -4.26 2.52 c-1.14 3.96 -2.58 7.5 -3.9 10.5 c-2.52 5.58 -8.52 15 -15.06 15 c-3.72 0 -7.86 -2.64 -7.86 -10.74 c0 -5.82 2.46 -12.42 5.94 -17.94 c-0.9 -1.74 -1.32 -3.84 -1.32 -5.94 c0 -12.9 10.68 -25.92 18.48 -25.92 c4.74 0 6.78 5.34 6.78 13.86 c0 7.56 -1.14 14.16 -2.7 19.8 c1.2 -0.54 2.4 -1.2 3.48 -1.92 c1.86 -1.2 1.68 -0.06 0.42 0.78 z M12.78 58.38 c3.6 0.42 7.26 -0.3 10.68 -1.62 c1.74 -6.06 3.18 -13.5 3.18 -21.24 c0 -9.66 -2.46 -12 -5.34 -12 c-7.38 0 -16.98 13.86 -16.98 24.6 c0 1.68 0.24 3.24 0.72 4.56 c2.28 -3.36 4.92 -6.18 7.5 -8.1 c1.26 -0.96 2.28 -0.66 1.08 0.48 c-3.24 3.12 -5.82 6.18 -7.86 9.12 c1.38 2.34 3.66 3.84 7.02 4.2 z M19.8 67.02 c0.96 -2.22 2.16 -5.28 3.24 -8.88 c-3.24 1.26 -6.66 1.74 -10.14 1.44 c-3.78 -0.3 -6.36 -1.92 -7.98 -4.14 c-3.78 6 -5.28 11.7 -5.28 16.8 c0 6.3 2.58 9.36 6.06 9.36 c6.24 0 11.52 -8.7 14.1 -14.58 z"></path></g><g id="SvgjsG8402" featureKey="nameFeature-0" transform="matrix(1.212145761980488,0,0,1.212145761980488,-3.1515794435461815,147.8663852242354)" fill="#ffffff"><path d="M16.92 40.52 c-7.92 0 -14.32 -6.4 -14.32 -14.4 c0 -8.04 6.4 -14.44 14.32 -14.44 c7.88 0 14.28 6.4 14.28 14.44 c0 8 -6.4 14.4 -14.28 14.4 z M16.92 37.6 c6.28 0 11.24 -5.08 11.24 -11.48 c0 -6.44 -4.96 -11.52 -11.24 -11.52 c-6.32 0 -11.28 5.08 -11.28 11.52 c0 6.4 4.96 11.48 11.28 11.48 z M70.46000000000001 25.560000000000002 c0.36 0 0.6 0.24 0.6 0.6 l0 1.28 c0 7.44 -4.88 13.08 -12.84 13.08 c-8.08 0 -14.12 -6.44 -14.12 -14.46 c0 -7.98 6.12 -14.38 14.08 -14.38 c3.82 0 6.86 1.44 9.44 3.76 c0.28 0.24 0.32 0.56 0.04 0.84 l-1.24 1.28 c-0.28 0.28 -0.56 0.24 -0.84 0 c-2.06 -1.78 -4.38 -2.84 -7.4 -2.84 c-6.04 0 -10.92 4.88 -10.92 11.34 c0 6.5 4.8 11.42 10.96 11.42 c5.66 0 9.72 -3.68 9.88 -9.04 l-9.44 0 c-0.36 0 -0.6 -0.24 -0.6 -0.6 l0 -1.68 c0 -0.36 0.24 -0.6 0.6 -0.6 l11.8 0 z M93.52000000000001 24.240000000000002 c5.48 1.16 10.34 2.72 10.34 8.6 c0 4.52 -3.14 7.76 -10.22 7.76 c-5.96 0 -9.68 -2.24 -10.08 -6.6 c-0.04 -0.4 0.2 -0.74 0.56 -0.74 l1.9 0 c0.36 0 0.56 0.3 0.6 0.62 c0.3 2.36 2.86 3.88 7.02 3.88 c4.6 0 7.14 -1.6 7.14 -4.92 c0 -3.92 -2.9 -4.64 -7.26 -5.68 c-5.1 -1.22 -9.28 -2.88 -9.28 -8.24 c0 -4.38 3.04 -7.26 9.12 -7.26 c5.68 0 9.2 2.18 9.64 6.5 c0.04 0.4 -0.2 0.58 -0.56 0.58 l-1.76 0 c-0.36 0 -0.56 -0.14 -0.6 -0.46 c-0.28 -2.24 -2.72 -3.82 -6.72 -3.82 c-3.68 0 -6.12 1.48 -6.12 4.46 c0 3.06 2.26 4.46 6.28 5.32 z M139.24 39.32 c0.16 0.4 -0.04 0.68 -0.48 0.68 l-1.92 0 c-0.32 0 -0.54 -0.12 -0.68 -0.48 l-2.14 -5.72 l-13.48 0 l-2.14 5.72 c-0.14 0.36 -0.36 0.48 -0.68 0.48 l-1.92 0 c-0.44 0 -0.64 -0.28 -0.48 -0.68 l10.24 -26.84 c0.12 -0.32 0.4 -0.48 0.72 -0.48 l2 0 c0.32 0 0.6 0.16 0.72 0.48 z M121.58000000000001 31 l11.4 0 l-5.7 -15.2 z M179.42000000000002 12 c0.36 0 0.6 0.24 0.6 0.6 l0 26.8 c0 0.36 -0.24 0.6 -0.6 0.6 l-1.92 0 c-0.36 0 -0.6 -0.24 -0.6 -0.6 l0 -21.76 l-9.32 21.92 c-0.12 0.32 -0.36 0.44 -0.68 0.44 l-1.96 0 c-0.32 0 -0.56 -0.12 -0.68 -0.44 l-9.24 -21.72 l0 21.56 c0 0.36 -0.24 0.6 -0.6 0.6 l-1.92 0 c-0.36 0 -0.6 -0.24 -0.6 -0.6 l0 -26.8 c0 -0.36 0.24 -0.6 0.6 -0.6 l2.56 0 c0.32 0 0.6 0.12 0.72 0.4 l10.16 24.12 l10.12 -24.12 c0.12 -0.28 0.4 -0.4 0.72 -0.4 l2.64 0 z"></path></g><g id="SvgjsG8403" featureKey="sloganFeature-0" transform="matrix(0.5556311598934855,0,0,0.5556311598934855,15.655508214561813,214.62189825413424)" fill="url(#SvgjsLinearGradient8411)"><path d="M17.18 5.5600000000000005 c-0.37334 0 -0.56 0.18666 -0.56 0.56 l0 10.88 l-16 -12 l0 13.12 c0 0.36 0.18666 0.54 0.56 0.54 s0.56 -0.18 0.56 -0.54 l0 -10.9 l16 12 l0 -13.1 c0 -0.37334 -0.18666 -0.56 -0.56 -0.56 z M60.660000000000004 5.220000000000001 c-2.4266 0 -4.5066 0.66 -6.24 1.98 c-1.7733 1.3467 -2.66 2.9866 -2.66 4.92 s0.88666 3.5734 2.66 4.92 c1.72 1.3067 3.8 1.96 6.24 1.96 s4.5134 -0.65334 6.22 -1.96 c1.7733 -1.36 2.66 -3 2.66 -4.92 s-0.88666 -3.56 -2.66 -4.92 c-1.7333 -1.32 -3.8066 -1.98 -6.22 -1.98 z M68.44 12.120000000000001 c0 1.5867 -0.76 2.9434 -2.28 4.07 s-3.3534 1.69 -5.5 1.69 s-3.98 -0.56334 -5.5 -1.69 s-2.28 -2.4834 -2.28 -4.07 c0 -1.6 0.76 -2.9634 2.28 -4.09 s3.3534 -1.69 5.5 -1.69 s3.98 0.56334 5.5 1.69 s2.28 2.49 2.28 4.09 z M158.48000000000002 17.56 l-15.44 0 l0 -11.44 c0 -0.37334 -0.18666 -0.56 -0.56 -0.56 s-0.56 0.18666 -0.56 0.56 l0 12.54 l16.56 0 c0.37334 0 0.56 -0.18 0.56 -0.54 c0 -0.37334 -0.18666 -0.56 -0.56 -0.56 z M193.32 6.119999999999999 l0 12 c0 0.36 0.18 0.54 0.54 0.54 c0.37334 0 0.56 -0.18 0.56 -0.54 l0 0 l0 -12 c0 -0.37334 -0.18666 -0.56 -0.56 -0.56 c-0.36 0 -0.54 0.18666 -0.54 0.56 z M237.23999999999998 17.1 l-8.56 -12.82 l0 13.84 c0 0.36 0.18666 0.54 0.56 0.54 c0.36 0 0.54 -0.18 0.54 -0.54 l0 -10.18 l7.46 11.18 l7.44 -11.18 l0 10.18 c0 0.36 0.18666 0.54 0.56 0.54 c0.36 0 0.54 -0.18 0.54 -0.54 l0 -13.84 z M280.02 6.119999999999999 l0 12 c0 0.36 0.18 0.54 0.54 0.54 c0.37334 0 0.56 -0.18 0.56 -0.54 l0 0 l0 -12 c0 -0.37334 -0.18666 -0.56 -0.56 -0.56 c-0.36 0 -0.54 0.18666 -0.54 0.56 z M331.82 5.4399999999999995 l-16 0 c-0.37334 0 -0.56 0.18666 -0.56 0.56 s0.18666 0.56 0.56 0.56 l7.44 0 l0 11.44 c0 0.37334 0.18666 0.56 0.56 0.56 s0.56 -0.18666 0.56 -0.56 l0 -11.44 l7.44 0 c0.37334 0 0.56 -0.18666 0.56 -0.56 s-0.18666 -0.56 -0.56 -0.56 z"></path></g>
			</g>
		</svg>
	